%TF.GenerationSoftware,KiCad,Pcbnew,10.0.4*%
%TF.CreationDate,2026-07-02T03:59:05-07:00*%
%TF.ProjectId,fallout_badge,66616c6c-6f75-4745-9f62-616467652e6b,rev?*%
%TF.SameCoordinates,Original*%
%TF.FileFunction,Copper,L2,Bot*%
%TF.FilePolarity,Positive*%
%FSLAX46Y46*%
G04 Gerber Fmt 4.6, Leading zero omitted, Abs format (unit mm)*
G04 Created by KiCad (PCBNEW 10.0.4) date 2026-07-02 03:59:05*
%MOMM*%
%LPD*%
G01*
G04 APERTURE LIST*
%TA.AperFunction,ComponentPad*%
%ADD10C,2.000000*%
%TD*%
%TA.AperFunction,ViaPad*%
%ADD11C,0.600000*%
%TD*%
%TA.AperFunction,Conductor*%
%ADD12C,1.000000*%
%TD*%
G04 APERTURE END LIST*
D10*
%TO.P,SW2,1,1_1*%
%TO.N,Net-(U1-D3)*%
X86000000Y-46500000D03*
X92500000Y-46500000D03*
%TO.P,SW2,2,2_2*%
%TO.N,GND*%
X86000000Y-51000000D03*
X92500000Y-51000000D03*
%TD*%
%TO.P,SW1,1,1_1*%
%TO.N,Net-(U1-D2)*%
X76000000Y-46450000D03*
X82500000Y-46450000D03*
%TO.P,SW1,2,2_2*%
%TO.N,GND*%
X76000000Y-50950000D03*
X82500000Y-50950000D03*
%TD*%
D11*
%TO.N,Net-(U1-D3)*%
X76000000Y-34120000D03*
X76000000Y-34120000D03*
X76000000Y-44000000D03*
%TO.N,Net-(D69-DIN)*%
X61000000Y-40500000D03*
X64500000Y-44000000D03*
%TO.N,Net-(D68-DIN)*%
X67000000Y-37500000D03*
X60500000Y-34000000D03*
%TO.N,Net-(D59-DIN)*%
X47500000Y-56500000D03*
X44981472Y-53981472D03*
%TO.N,Net-(D58-DIN)*%
X51500000Y-47500000D03*
X44000000Y-47000000D03*
%TO.N,Net-(D46-DIN)*%
X35500000Y-48000000D03*
X28500000Y-47000000D03*
%TO.N,Net-(D45-DIN)*%
X28491472Y-40991472D03*
X32000000Y-44500000D03*
%TO.N,Net-(D41-DIN)*%
X19000000Y-54000000D03*
X23500000Y-55500000D03*
%TO.N,Net-(D40-DIN)*%
X27000000Y-50500000D03*
X19500000Y-47500000D03*
%TO.N,Net-(D39-DIN)*%
X19000000Y-40000000D03*
X24000000Y-43500000D03*
%TO.N,Net-(D38-DIN)*%
X19000000Y-34000000D03*
X26000000Y-37500000D03*
%TO.N,Net-(D57-DIN)*%
X48000000Y-42500000D03*
X44500000Y-40500000D03*
%TO.N,Net-(D44-DIN)*%
X27000000Y-35000000D03*
X35000000Y-37500000D03*
%TO.N,Net-(D43-DIN)*%
X32000000Y-30500000D03*
X28050000Y-27500000D03*
%TO.N,Net-(D53-DIN)*%
X36921472Y-53921472D03*
X39000000Y-56000000D03*
%TO.N,Net-(D52-DIN)*%
X42000000Y-48000000D03*
X36990000Y-47232944D03*
%TO.N,Net-(D50-DIN)*%
X35500000Y-34500000D03*
X42500000Y-34500000D03*
%TO.N,Net-(D49-DIN)*%
X39000000Y-29500000D03*
X36500000Y-27000000D03*
%TO.N,Net-(D63-DIN)*%
X56000000Y-43500000D03*
X53300000Y-40500000D03*
%TO.N,Net-(D62-DIN)*%
X52000000Y-34500000D03*
X59500000Y-38000000D03*
%TO.N,Net-(D47-DIN)*%
X28361472Y-54361472D03*
X32000000Y-56000000D03*
%TO.N,Net-(D67-DIN)*%
X64000000Y-30000000D03*
X60530000Y-27500000D03*
%TO.N,Net-(D61-DIN)*%
X55500000Y-29500000D03*
X53000000Y-27000000D03*
%TO.N,Net-(D65-DIN)*%
X55500000Y-56000000D03*
X53000000Y-54000000D03*
%TO.N,Net-(D64-DIN)*%
X59000000Y-51000000D03*
X53000000Y-47000000D03*
%TO.N,Net-(U1-D2)*%
X76000000Y-31580000D03*
X87500000Y-28000000D03*
%TO.N,Net-(D37-DIN)*%
X24000000Y-31000000D03*
X19000000Y-27500000D03*
%TO.N,Net-(D71-DIN)*%
X61000000Y-54000000D03*
X63500000Y-55500000D03*
%TO.N,Net-(D70-DIN)*%
X68000000Y-51000000D03*
X60500000Y-47000000D03*
%TO.N,Net-(D56-DIN)*%
X50500000Y-37500000D03*
X44500000Y-33500000D03*
%TO.N,Net-(D55-DIN)*%
X44290000Y-28000000D03*
X47500000Y-29500000D03*
%TO.N,Net-(D51-DIN)*%
X36500000Y-40500000D03*
X39500000Y-42500000D03*
%TD*%
%TO.N,Net-(U1-D3)*%
D12*
X76000000Y-44000000D02*
X76000000Y-34120000D01*
%TO.N,Net-(D69-DIN)*%
X61000000Y-40500000D02*
X64500000Y-44000000D01*
%TO.N,Net-(D68-DIN)*%
X63500000Y-34000000D02*
X67000000Y-37500000D01*
X60500000Y-34000000D02*
X63500000Y-34000000D01*
%TO.N,Net-(D59-DIN)*%
X44981472Y-53981472D02*
X47500000Y-56500000D01*
%TO.N,Net-(D58-DIN)*%
X44000000Y-47000000D02*
X51000000Y-47000000D01*
X51000000Y-47000000D02*
X51500000Y-47500000D01*
%TO.N,Net-(D46-DIN)*%
X34500000Y-47000000D02*
X35500000Y-48000000D01*
X28500000Y-47000000D02*
X34500000Y-47000000D01*
%TO.N,Net-(D45-DIN)*%
X28491472Y-40991472D02*
X32000000Y-44500000D01*
%TO.N,Net-(D41-DIN)*%
X22000000Y-54000000D02*
X23500000Y-55500000D01*
X19000000Y-54000000D02*
X22000000Y-54000000D01*
%TO.N,Net-(D40-DIN)*%
X24000000Y-47500000D02*
X27000000Y-50500000D01*
X19500000Y-47500000D02*
X24000000Y-47500000D01*
%TO.N,Net-(D39-DIN)*%
X19000000Y-40000000D02*
X20500000Y-40000000D01*
X20500000Y-40000000D02*
X24000000Y-43500000D01*
%TO.N,Net-(D38-DIN)*%
X19000000Y-34000000D02*
X22500000Y-34000000D01*
X22500000Y-34000000D02*
X26000000Y-37500000D01*
%TO.N,Net-(D57-DIN)*%
X44500000Y-40500000D02*
X46000000Y-40500000D01*
X46000000Y-40500000D02*
X48000000Y-42500000D01*
%TO.N,Net-(D44-DIN)*%
X27000000Y-35000000D02*
X32500000Y-35000000D01*
X32500000Y-35000000D02*
X35000000Y-37500000D01*
%TO.N,Net-(D43-DIN)*%
X28050000Y-27500000D02*
X29000000Y-27500000D01*
X29000000Y-27500000D02*
X32000000Y-30500000D01*
%TO.N,Net-(D53-DIN)*%
X36921472Y-53921472D02*
X39000000Y-56000000D01*
%TO.N,Net-(D52-DIN)*%
X36990000Y-47232944D02*
X41232944Y-47232944D01*
X41232944Y-47232944D02*
X42000000Y-48000000D01*
%TO.N,Net-(D50-DIN)*%
X35500000Y-34500000D02*
X42500000Y-34500000D01*
%TO.N,Net-(D49-DIN)*%
X36500000Y-27000000D02*
X39000000Y-29500000D01*
%TO.N,Net-(D63-DIN)*%
X53300000Y-40500000D02*
X53300000Y-40800000D01*
X53300000Y-40800000D02*
X56000000Y-43500000D01*
%TO.N,Net-(D62-DIN)*%
X56000000Y-34500000D02*
X59500000Y-38000000D01*
X52000000Y-34500000D02*
X56000000Y-34500000D01*
%TO.N,Net-(D47-DIN)*%
X28361472Y-54361472D02*
X30361472Y-54361472D01*
X30361472Y-54361472D02*
X32000000Y-56000000D01*
%TO.N,Net-(D67-DIN)*%
X60530000Y-27500000D02*
X61500000Y-27500000D01*
X61500000Y-27500000D02*
X64000000Y-30000000D01*
%TO.N,Net-(D61-DIN)*%
X53000000Y-27000000D02*
X55500000Y-29500000D01*
%TO.N,Net-(D65-DIN)*%
X53000000Y-54000000D02*
X53500000Y-54000000D01*
X53500000Y-54000000D02*
X55500000Y-56000000D01*
%TO.N,Net-(D64-DIN)*%
X53000000Y-47000000D02*
X55000000Y-47000000D01*
X55000000Y-47000000D02*
X59000000Y-51000000D01*
%TO.N,Net-(U1-D2)*%
X87500000Y-28000000D02*
X78085786Y-28000000D01*
X78085786Y-28000000D02*
X76000000Y-30085786D01*
X76000000Y-30085786D02*
X76000000Y-31580000D01*
%TO.N,Net-(D37-DIN)*%
X20500000Y-27500000D02*
X24000000Y-31000000D01*
X19000000Y-27500000D02*
X20500000Y-27500000D01*
%TO.N,Net-(D71-DIN)*%
X62000000Y-54000000D02*
X63500000Y-55500000D01*
X61000000Y-54000000D02*
X62000000Y-54000000D01*
%TO.N,Net-(D70-DIN)*%
X60500000Y-47000000D02*
X64000000Y-47000000D01*
X64000000Y-47000000D02*
X68000000Y-51000000D01*
%TO.N,Net-(D56-DIN)*%
X46500000Y-33500000D02*
X50500000Y-37500000D01*
X44500000Y-33500000D02*
X46500000Y-33500000D01*
%TO.N,Net-(D55-DIN)*%
X46000000Y-28000000D02*
X47500000Y-29500000D01*
X44290000Y-28000000D02*
X46000000Y-28000000D01*
%TO.N,Net-(D51-DIN)*%
X37500000Y-40500000D02*
X39500000Y-42500000D01*
X36500000Y-40500000D02*
X37500000Y-40500000D01*
%TD*%
M02*
