M48
; DRILL file KiCad 10.0.4 date 2026-07-02T03:59:05
; FORMAT={-:-/ absolute / inch / decimal}
; #@! TF.CreationDate,2026-07-02T03:59:05-07:00
; #@! TF.GenerationSoftware,Kicad,Pcbnew,10.0.4
; #@! TF.FileFunction,Plated,1,2,PTH
FMAT,2
INCH
; #@! TA.AperFunction,Plated,PTH,ViaDrill
T1C0.0118
; #@! TA.AperFunction,Plated,PTH,ComponentDrill
T2C0.0433
%
G90
G05
T1
X0.748Y-1.0827
X0.748Y-1.3386
X0.748Y-1.5748
X0.748Y-2.126
X0.7677Y-1.8701
X0.9252Y-2.185
X0.9449Y-1.2205
X0.9449Y-1.7126
X1.0236Y-1.4764
X1.063Y-1.378
X1.063Y-1.9882
X1.1043Y-1.0827
X1.1166Y-2.1402
X1.1217Y-1.6138
X1.122Y-1.8504
X1.2598Y-1.2008
X1.2598Y-1.752
X1.2598Y-2.2047
X1.378Y-1.4764
X1.3976Y-1.3583
X1.3976Y-1.8898
X1.437Y-1.063
X1.437Y-1.5945
X1.4536Y-2.1229
X1.4563Y-1.8596
X1.5354Y-1.1614
X1.5354Y-2.2047
X1.5551Y-1.6732
X1.6535Y-1.8898
X1.6732Y-1.3583
X1.7323Y-1.8504
X1.7437Y-1.1024
X1.752Y-1.3189
X1.752Y-1.5945
X1.7709Y-2.1253
X1.8701Y-1.1614
X1.8701Y-2.2244
X1.8898Y-1.6732
X1.9882Y-1.4764
X2.0276Y-1.8701
X2.0472Y-1.3583
X2.0866Y-1.063
X2.0866Y-1.8504
X2.0866Y-2.126
X2.0984Y-1.5945
X2.185Y-1.1614
X2.185Y-2.2047
X2.2047Y-1.7126
X2.3228Y-2.0079
X2.3425Y-1.4961
X2.3819Y-1.3386
X2.3819Y-1.8504
X2.3831Y-1.0827
X2.4016Y-1.5945
X2.4016Y-2.126
X2.5Y-2.185
X2.5197Y-1.1811
X2.5394Y-1.7323
X2.6378Y-1.4764
X2.6772Y-2.0079
X2.9921Y-1.2433
X2.9921Y-1.3433
X2.9921Y-1.3433
X2.9921Y-1.7323
X3.4449Y-1.1024
T2
X2.9921Y-1.8287
X2.9921Y-2.0059
X3.248Y-1.8287
X3.248Y-2.0059
X3.3858Y-1.8307
X3.3858Y-2.0079
X3.6417Y-1.8307
X3.6417Y-2.0079
M30
