%TF.GenerationSoftware,KiCad,Pcbnew,10.0.4*%
%TF.CreationDate,2026-07-02T03:59:05-07:00*%
%TF.ProjectId,fallout_badge,66616c6c-6f75-4745-9f62-616467652e6b,rev?*%
%TF.SameCoordinates,Original*%
%TF.FileFunction,Copper,L1,Top*%
%TF.FilePolarity,Positive*%
%FSLAX46Y46*%
G04 Gerber Fmt 4.6, Leading zero omitted, Abs format (unit mm)*
G04 Created by KiCad (PCBNEW 10.0.4) date 2026-07-02 03:59:05*
%MOMM*%
%LPD*%
G01*
G04 APERTURE LIST*
G04 Aperture macros list*
%AMRoundRect*
0 Rectangle with rounded corners*
0 $1 Rounding radius*
0 $2 $3 $4 $5 $6 $7 $8 $9 X,Y pos of 4 corners*
0 Add a 4 corners polygon primitive as box body*
4,1,4,$2,$3,$4,$5,$6,$7,$8,$9,$2,$3,0*
0 Add four circle primitives for the rounded corners*
1,1,$1+$1,$2,$3*
1,1,$1+$1,$4,$5*
1,1,$1+$1,$6,$7*
1,1,$1+$1,$8,$9*
0 Add four rect primitives between the rounded corners*
20,1,$1+$1,$2,$3,$4,$5,0*
20,1,$1+$1,$4,$5,$6,$7,0*
20,1,$1+$1,$6,$7,$8,$9,0*
20,1,$1+$1,$8,$9,$2,$3,0*%
G04 Aperture macros list end*
%TA.AperFunction,ComponentPad*%
%ADD10C,2.000000*%
%TD*%
%TA.AperFunction,SMDPad,CuDef*%
%ADD11R,1.500000X1.000000*%
%TD*%
%TA.AperFunction,SMDPad,CuDef*%
%ADD12RoundRect,0.500000X-0.875000X-0.500000X0.875000X-0.500000X0.875000X0.500000X-0.875000X0.500000X0*%
%TD*%
%TA.AperFunction,SMDPad,CuDef*%
%ADD13C,1.700000*%
%TD*%
%TA.AperFunction,SMDPad,CuDef*%
%ADD14RoundRect,0.275000X0.975000X0.275000X-0.975000X0.275000X-0.975000X-0.275000X0.975000X-0.275000X0*%
%TD*%
%TA.AperFunction,ViaPad*%
%ADD15C,0.600000*%
%TD*%
%TA.AperFunction,Conductor*%
%ADD16C,1.000000*%
%TD*%
G04 APERTURE END LIST*
D10*
%TO.P,SW2,1,1_1*%
%TO.N,Net-(U1-D3)*%
X86000000Y-46500000D03*
X92500000Y-46500000D03*
%TO.P,SW2,2,2_2*%
%TO.N,GND*%
X86000000Y-51000000D03*
X92500000Y-51000000D03*
%TD*%
D11*
%TO.P,D69,1,VSS_1*%
%TO.N,GND*%
X61100000Y-35940000D03*
%TO.P,D69,2,DIN_2*%
%TO.N,Net-(D69-DIN)*%
X61100000Y-39140000D03*
%TO.P,D69,3,VDD_3*%
%TO.N,Net-(D37-VDD)*%
X66000000Y-39140000D03*
%TO.P,D69,4,DOUT_4*%
%TO.N,Net-(D68-DIN)*%
X66000000Y-35940000D03*
%TD*%
%TO.P,D59,1,VSS_1*%
%TO.N,GND*%
X44860000Y-49180000D03*
%TO.P,D59,2,DIN_2*%
%TO.N,Net-(D59-DIN)*%
X44860000Y-52380000D03*
%TO.P,D59,3,VDD_3*%
%TO.N,Net-(D37-VDD)*%
X49760000Y-52380000D03*
%TO.P,D59,4,DOUT_4*%
%TO.N,Net-(D58-DIN)*%
X49760000Y-49180000D03*
%TD*%
%TO.P,D46,1,VSS_1*%
%TO.N,GND*%
X28620000Y-42560000D03*
%TO.P,D46,2,DIN_2*%
%TO.N,Net-(D46-DIN)*%
X28620000Y-45760000D03*
%TO.P,D46,3,VDD_3*%
%TO.N,Net-(D37-VDD)*%
X33520000Y-45760000D03*
%TO.P,D46,4,DOUT_4*%
%TO.N,Net-(D45-DIN)*%
X33520000Y-42560000D03*
%TD*%
%TO.P,D41,1,VSS_1*%
%TO.N,GND*%
X20500000Y-49180000D03*
%TO.P,D41,2,DIN_2*%
%TO.N,Net-(D41-DIN)*%
X20500000Y-52380000D03*
%TO.P,D41,3,VDD_3*%
%TO.N,Net-(D37-VDD)*%
X25400000Y-52380000D03*
%TO.P,D41,4,DOUT_4*%
%TO.N,Net-(D40-DIN)*%
X25400000Y-49180000D03*
%TD*%
%TO.P,D39,1,VSS_1*%
%TO.N,GND*%
X20500000Y-35940000D03*
%TO.P,D39,2,DIN_2*%
%TO.N,Net-(D39-DIN)*%
X20500000Y-39140000D03*
%TO.P,D39,3,VDD_3*%
%TO.N,Net-(D37-VDD)*%
X25400000Y-39140000D03*
%TO.P,D39,4,DOUT_4*%
%TO.N,Net-(D38-DIN)*%
X25400000Y-35940000D03*
%TD*%
%TO.P,D58,1,VSS_1*%
%TO.N,GND*%
X44860000Y-42560000D03*
%TO.P,D58,2,DIN_2*%
%TO.N,Net-(D58-DIN)*%
X44860000Y-45760000D03*
%TO.P,D58,3,VDD_3*%
%TO.N,Net-(D37-VDD)*%
X49760000Y-45760000D03*
%TO.P,D58,4,DOUT_4*%
%TO.N,Net-(D57-DIN)*%
X49760000Y-42560000D03*
%TD*%
%TO.P,D44,1,VSS_1*%
%TO.N,GND*%
X28620000Y-29320000D03*
%TO.P,D44,2,DIN_2*%
%TO.N,Net-(D44-DIN)*%
X28620000Y-32520000D03*
%TO.P,D44,3,VDD_3*%
%TO.N,Net-(D37-VDD)*%
X33520000Y-32520000D03*
%TO.P,D44,4,DOUT_4*%
%TO.N,Net-(D43-DIN)*%
X33520000Y-29320000D03*
%TD*%
%TO.P,D53,1,VSS_1*%
%TO.N,GND*%
X36740000Y-49180000D03*
%TO.P,D53,2,DIN_2*%
%TO.N,Net-(D53-DIN)*%
X36740000Y-52380000D03*
%TO.P,D53,3,VDD_3*%
%TO.N,Net-(D37-VDD)*%
X41640000Y-52380000D03*
%TO.P,D53,4,DOUT_4*%
%TO.N,Net-(D52-DIN)*%
X41640000Y-49180000D03*
%TD*%
%TO.P,D50,1,VSS_1*%
%TO.N,GND*%
X36740000Y-29320000D03*
%TO.P,D50,2,DIN_2*%
%TO.N,Net-(D50-DIN)*%
X36740000Y-32520000D03*
%TO.P,D50,3,VDD_3*%
%TO.N,Net-(D37-VDD)*%
X41640000Y-32520000D03*
%TO.P,D50,4,DOUT_4*%
%TO.N,Net-(D49-DIN)*%
X41640000Y-29320000D03*
%TD*%
%TO.P,D40,1,VSS_1*%
%TO.N,GND*%
X20500000Y-42560000D03*
%TO.P,D40,2,DIN_2*%
%TO.N,Net-(D40-DIN)*%
X20500000Y-45760000D03*
%TO.P,D40,3,VDD_3*%
%TO.N,Net-(D37-VDD)*%
X25400000Y-45760000D03*
%TO.P,D40,4,DOUT_4*%
%TO.N,Net-(D39-DIN)*%
X25400000Y-42560000D03*
%TD*%
%TO.P,D43,1,VSS_1*%
%TO.N,GND*%
X28620000Y-22700000D03*
%TO.P,D43,2,DIN_2*%
%TO.N,Net-(D43-DIN)*%
X28620000Y-25900000D03*
%TO.P,D43,3,VDD_3*%
%TO.N,Net-(D37-VDD)*%
X33520000Y-25900000D03*
%TO.P,D43,4,DOUT_4*%
%TO.N,unconnected-(D43-DOUT-Pad4)*%
X33520000Y-22700000D03*
%TD*%
%TO.P,D60,1,VSS_1*%
%TO.N,GND*%
X44860000Y-55800000D03*
%TO.P,D60,2,DIN_2*%
%TO.N,unconnected-(D60-DIN-Pad2)*%
X44860000Y-59000000D03*
%TO.P,D60,3,VDD_3*%
%TO.N,Net-(D37-VDD)*%
X49760000Y-59000000D03*
%TO.P,D60,4,DOUT_4*%
%TO.N,Net-(D59-DIN)*%
X49760000Y-55800000D03*
%TD*%
%TO.P,D63,1,VSS_1*%
%TO.N,GND*%
X52980000Y-35940000D03*
%TO.P,D63,2,DIN_2*%
%TO.N,Net-(D63-DIN)*%
X52980000Y-39140000D03*
%TO.P,D63,3,VDD_3*%
%TO.N,Net-(D37-VDD)*%
X57880000Y-39140000D03*
%TO.P,D63,4,DOUT_4*%
%TO.N,Net-(D62-DIN)*%
X57880000Y-35940000D03*
%TD*%
%TO.P,D47,1,VSS_1*%
%TO.N,GND*%
X28620000Y-49180000D03*
%TO.P,D47,2,DIN_2*%
%TO.N,Net-(D47-DIN)*%
X28620000Y-52380000D03*
%TO.P,D47,3,VDD_3*%
%TO.N,Net-(D37-VDD)*%
X33520000Y-52380000D03*
%TO.P,D47,4,DOUT_4*%
%TO.N,Net-(D46-DIN)*%
X33520000Y-49180000D03*
%TD*%
%TO.P,D68,1,VSS_1*%
%TO.N,GND*%
X61100000Y-29320000D03*
%TO.P,D68,2,DIN_2*%
%TO.N,Net-(D68-DIN)*%
X61100000Y-32520000D03*
%TO.P,D68,3,VDD_3*%
%TO.N,Net-(D37-VDD)*%
X66000000Y-32520000D03*
%TO.P,D68,4,DOUT_4*%
%TO.N,Net-(D67-DIN)*%
X66000000Y-29320000D03*
%TD*%
%TO.P,D61,1,VSS_1*%
%TO.N,GND*%
X52980000Y-22700000D03*
%TO.P,D61,2,DIN_2*%
%TO.N,Net-(D61-DIN)*%
X52980000Y-25900000D03*
%TO.P,D61,3,VDD_3*%
%TO.N,Net-(D37-VDD)*%
X57880000Y-25900000D03*
%TO.P,D61,4,DOUT_4*%
%TO.N,unconnected-(D61-DOUT-Pad4)*%
X57880000Y-22700000D03*
%TD*%
%TO.P,D65,1,VSS_1*%
%TO.N,GND*%
X52980000Y-49180000D03*
%TO.P,D65,2,DIN_2*%
%TO.N,Net-(D65-DIN)*%
X52980000Y-52380000D03*
%TO.P,D65,3,VDD_3*%
%TO.N,Net-(D37-VDD)*%
X57880000Y-52380000D03*
%TO.P,D65,4,DOUT_4*%
%TO.N,Net-(D64-DIN)*%
X57880000Y-49180000D03*
%TD*%
D10*
%TO.P,SW1,1,1_1*%
%TO.N,Net-(U1-D2)*%
X76000000Y-46450000D03*
X82500000Y-46450000D03*
%TO.P,SW1,2,2_2*%
%TO.N,GND*%
X76000000Y-50950000D03*
X82500000Y-50950000D03*
%TD*%
D11*
%TO.P,D48,1,VSS_1*%
%TO.N,GND*%
X28620000Y-55800000D03*
%TO.P,D48,2,DIN_2*%
%TO.N,unconnected-(D48-DIN-Pad2)*%
X28620000Y-59000000D03*
%TO.P,D48,3,VDD_3*%
%TO.N,Net-(D37-VDD)*%
X33520000Y-59000000D03*
%TO.P,D48,4,DOUT_4*%
%TO.N,Net-(D47-DIN)*%
X33520000Y-55800000D03*
%TD*%
%TO.P,D38,1,VSS_1*%
%TO.N,GND*%
X20500000Y-29320000D03*
%TO.P,D38,2,DIN_2*%
%TO.N,Net-(D38-DIN)*%
X20500000Y-32520000D03*
%TO.P,D38,3,VDD_3*%
%TO.N,Net-(D37-VDD)*%
X25400000Y-32520000D03*
%TO.P,D38,4,DOUT_4*%
%TO.N,Net-(D37-DIN)*%
X25400000Y-29320000D03*
%TD*%
%TO.P,D42,1,VSS_1*%
%TO.N,GND*%
X20500000Y-55800000D03*
%TO.P,D42,2,DIN_2*%
%TO.N,Net-(D42-DIN)*%
X20500000Y-59000000D03*
%TO.P,D42,3,VDD_3*%
%TO.N,Net-(D37-VDD)*%
X25400000Y-59000000D03*
%TO.P,D42,4,DOUT_4*%
%TO.N,Net-(D41-DIN)*%
X25400000Y-55800000D03*
%TD*%
D12*
%TO.P,U1,1,D0_1*%
%TO.N,unconnected-(U1-D0-Pad1)*%
X76000000Y-26500000D03*
%TO.P,U1,2,D1_2*%
%TO.N,Net-(D42-DIN)*%
X76000000Y-29040000D03*
%TO.P,U1,3,D2_3*%
%TO.N,Net-(U1-D2)*%
X76000000Y-31580000D03*
%TO.P,U1,4,D3_4*%
%TO.N,Net-(U1-D3)*%
X76000000Y-34120000D03*
%TO.P,U1,5,D4_5*%
%TO.N,Net-(U1-D4)*%
X76000000Y-36660000D03*
%TO.P,U1,6,D5_6*%
%TO.N,unconnected-(U1-D5-Pad6)*%
X76000000Y-39200000D03*
%TO.P,U1,7,D6_7*%
%TO.N,Net-(U1-D6)*%
X76000000Y-41740000D03*
%TO.P,U1,8,D7_8*%
%TO.N,unconnected-(U1-D7-Pad8)*%
X92165000Y-41740000D03*
%TO.P,U1,9,D8_9*%
%TO.N,unconnected-(U1-D8-Pad9)*%
X92165000Y-39200000D03*
%TO.P,U1,10,D9/BOOT_10*%
%TO.N,unconnected-(U1-D9{slash}BOOT-Pad10)*%
X92165000Y-36660000D03*
%TO.P,U1,11,D10_11*%
%TO.N,unconnected-(U1-D10-Pad11)*%
X92165000Y-34120000D03*
%TO.P,U1,12,3V3_OUT_12*%
%TO.N,Net-(D37-VDD)*%
X92165000Y-31580000D03*
%TO.P,U1,13,GND_13*%
%TO.N,GND*%
X92165000Y-29040000D03*
%TO.P,U1,14,VBUS_14*%
%TO.N,unconnected-(U1-VBUS-Pad14)*%
X92165000Y-26500000D03*
D13*
%TO.P,U1,15,D3/MTDI_15*%
%TO.N,unconnected-(U1-D3{slash}MTDI-Pad15)*%
X82785000Y-25488000D03*
%TO.P,U1,16,D5/MTDO_16*%
%TO.N,unconnected-(U1-D5{slash}MTDO-Pad16)*%
X85325000Y-25488000D03*
%TO.P,U1,17,EN_17*%
%TO.N,unconnected-(U1-EN-Pad17)*%
X82785000Y-28028000D03*
%TO.P,U1,18,GND_18*%
%TO.N,GND*%
X85325000Y-28028000D03*
%TO.P,U1,19,D2/MTMS_19*%
%TO.N,unconnected-(U1-D2{slash}MTMS-Pad19)*%
X82785000Y-30568000D03*
%TO.P,U1,20,D4/MTCK_20*%
%TO.N,unconnected-(U1-D4{slash}MTCK-Pad20)*%
X85325000Y-30568000D03*
D14*
%TO.P,U1,21,VBAT_21*%
%TO.N,unconnected-(U1-VBAT-Pad21)*%
X79610000Y-33738000D03*
%TO.P,U1,22,GND_22*%
%TO.N,unconnected-(U1-GND-Pad22)*%
X79610000Y-31833000D03*
%TD*%
D11*
%TO.P,D54,1,VSS_1*%
%TO.N,GND*%
X36740000Y-55800000D03*
%TO.P,D54,2,DIN_2*%
%TO.N,unconnected-(D54-DIN-Pad2)*%
X36740000Y-59000000D03*
%TO.P,D54,3,VDD_3*%
%TO.N,Net-(D37-VDD)*%
X41640000Y-59000000D03*
%TO.P,D54,4,DOUT_4*%
%TO.N,Net-(D53-DIN)*%
X41640000Y-55800000D03*
%TD*%
%TO.P,D71,1,VSS_1*%
%TO.N,GND*%
X61100000Y-49180000D03*
%TO.P,D71,2,DIN_2*%
%TO.N,Net-(D71-DIN)*%
X61100000Y-52380000D03*
%TO.P,D71,3,VDD_3*%
%TO.N,Net-(D37-VDD)*%
X66000000Y-52380000D03*
%TO.P,D71,4,DOUT_4*%
%TO.N,Net-(D70-DIN)*%
X66000000Y-49180000D03*
%TD*%
%TO.P,D72,1,VSS_1*%
%TO.N,GND*%
X61100000Y-55800000D03*
%TO.P,D72,2,DIN_2*%
%TO.N,unconnected-(D72-DIN-Pad2)*%
X61100000Y-59000000D03*
%TO.P,D72,3,VDD_3*%
%TO.N,Net-(D37-VDD)*%
X66000000Y-59000000D03*
%TO.P,D72,4,DOUT_4*%
%TO.N,Net-(D71-DIN)*%
X66000000Y-55800000D03*
%TD*%
%TO.P,D56,1,VSS_1*%
%TO.N,GND*%
X44860000Y-29320000D03*
%TO.P,D56,2,DIN_2*%
%TO.N,Net-(D56-DIN)*%
X44860000Y-32520000D03*
%TO.P,D56,3,VDD_3*%
%TO.N,Net-(D37-VDD)*%
X49760000Y-32520000D03*
%TO.P,D56,4,DOUT_4*%
%TO.N,Net-(D55-DIN)*%
X49760000Y-29320000D03*
%TD*%
%TO.P,D57,1,VSS_1*%
%TO.N,GND*%
X44860000Y-35940000D03*
%TO.P,D57,2,DIN_2*%
%TO.N,Net-(D57-DIN)*%
X44860000Y-39140000D03*
%TO.P,D57,3,VDD_3*%
%TO.N,Net-(D37-VDD)*%
X49760000Y-39140000D03*
%TO.P,D57,4,DOUT_4*%
%TO.N,Net-(D56-DIN)*%
X49760000Y-35940000D03*
%TD*%
%TO.P,D67,1,VSS_1*%
%TO.N,GND*%
X61100000Y-22700000D03*
%TO.P,D67,2,DIN_2*%
%TO.N,Net-(D67-DIN)*%
X61100000Y-25900000D03*
%TO.P,D67,3,VDD_3*%
%TO.N,Net-(D37-VDD)*%
X66000000Y-25900000D03*
%TO.P,D67,4,DOUT_4*%
%TO.N,unconnected-(D67-DOUT-Pad4)*%
X66000000Y-22700000D03*
%TD*%
%TO.P,D64,1,VSS_1*%
%TO.N,GND*%
X52980000Y-42560000D03*
%TO.P,D64,2,DIN_2*%
%TO.N,Net-(D64-DIN)*%
X52980000Y-45760000D03*
%TO.P,D64,3,VDD_3*%
%TO.N,Net-(D37-VDD)*%
X57880000Y-45760000D03*
%TO.P,D64,4,DOUT_4*%
%TO.N,Net-(D63-DIN)*%
X57880000Y-42560000D03*
%TD*%
%TO.P,D49,1,VSS_1*%
%TO.N,GND*%
X36740000Y-22700000D03*
%TO.P,D49,2,DIN_2*%
%TO.N,Net-(D49-DIN)*%
X36740000Y-25900000D03*
%TO.P,D49,3,VDD_3*%
%TO.N,Net-(D37-VDD)*%
X41640000Y-25900000D03*
%TO.P,D49,4,DOUT_4*%
%TO.N,unconnected-(D49-DOUT-Pad4)*%
X41640000Y-22700000D03*
%TD*%
%TO.P,D51,1,VSS_1*%
%TO.N,GND*%
X36740000Y-35940000D03*
%TO.P,D51,2,DIN_2*%
%TO.N,Net-(D51-DIN)*%
X36740000Y-39140000D03*
%TO.P,D51,3,VDD_3*%
%TO.N,Net-(D37-VDD)*%
X41640000Y-39140000D03*
%TO.P,D51,4,DOUT_4*%
%TO.N,Net-(D50-DIN)*%
X41640000Y-35940000D03*
%TD*%
%TO.P,D62,1,VSS_1*%
%TO.N,GND*%
X52980000Y-29320000D03*
%TO.P,D62,2,DIN_2*%
%TO.N,Net-(D62-DIN)*%
X52980000Y-32520000D03*
%TO.P,D62,3,VDD_3*%
%TO.N,Net-(D37-VDD)*%
X57880000Y-32520000D03*
%TO.P,D62,4,DOUT_4*%
%TO.N,Net-(D61-DIN)*%
X57880000Y-29320000D03*
%TD*%
%TO.P,D70,1,VSS_1*%
%TO.N,GND*%
X61100000Y-42560000D03*
%TO.P,D70,2,DIN_2*%
%TO.N,Net-(D70-DIN)*%
X61100000Y-45760000D03*
%TO.P,D70,3,VDD_3*%
%TO.N,Net-(D37-VDD)*%
X66000000Y-45760000D03*
%TO.P,D70,4,DOUT_4*%
%TO.N,Net-(D69-DIN)*%
X66000000Y-42560000D03*
%TD*%
%TO.P,D66,1,VSS_1*%
%TO.N,GND*%
X52980000Y-55800000D03*
%TO.P,D66,2,DIN_2*%
%TO.N,unconnected-(D66-DIN-Pad2)*%
X52980000Y-59000000D03*
%TO.P,D66,3,VDD_3*%
%TO.N,Net-(D37-VDD)*%
X57880000Y-59000000D03*
%TO.P,D66,4,DOUT_4*%
%TO.N,Net-(D65-DIN)*%
X57880000Y-55800000D03*
%TD*%
%TO.P,D55,1,VSS_1*%
%TO.N,GND*%
X44860000Y-22700000D03*
%TO.P,D55,2,DIN_2*%
%TO.N,Net-(D55-DIN)*%
X44860000Y-25900000D03*
%TO.P,D55,3,VDD_3*%
%TO.N,Net-(D37-VDD)*%
X49760000Y-25900000D03*
%TO.P,D55,4,DOUT_4*%
%TO.N,unconnected-(D55-DOUT-Pad4)*%
X49760000Y-22700000D03*
%TD*%
%TO.P,D45,1,VSS_1*%
%TO.N,GND*%
X28620000Y-35940000D03*
%TO.P,D45,2,DIN_2*%
%TO.N,Net-(D45-DIN)*%
X28620000Y-39140000D03*
%TO.P,D45,3,VDD_3*%
%TO.N,Net-(D37-VDD)*%
X33520000Y-39140000D03*
%TO.P,D45,4,DOUT_4*%
%TO.N,Net-(D44-DIN)*%
X33520000Y-35940000D03*
%TD*%
%TO.P,D37,1,VSS_1*%
%TO.N,GND*%
X20500000Y-22700000D03*
%TO.P,D37,2,DIN_2*%
%TO.N,Net-(D37-DIN)*%
X20500000Y-25900000D03*
%TO.P,D37,3,VDD_3*%
%TO.N,Net-(D37-VDD)*%
X25400000Y-25900000D03*
%TO.P,D37,4,DOUT_4*%
%TO.N,unconnected-(D37-DOUT-Pad4)*%
X25400000Y-22700000D03*
%TD*%
%TO.P,D52,1,VSS_1*%
%TO.N,GND*%
X36740000Y-42560000D03*
%TO.P,D52,2,DIN_2*%
%TO.N,Net-(D52-DIN)*%
X36740000Y-45760000D03*
%TO.P,D52,3,VDD_3*%
%TO.N,Net-(D37-VDD)*%
X41640000Y-45760000D03*
%TO.P,D52,4,DOUT_4*%
%TO.N,Net-(D51-DIN)*%
X41640000Y-42560000D03*
%TD*%
D15*
%TO.N,Net-(U1-D3)*%
X76000000Y-34120000D03*
X76000000Y-34120000D03*
X76000000Y-44000000D03*
%TO.N,Net-(D69-DIN)*%
X61000000Y-40500000D03*
X64500000Y-44000000D03*
%TO.N,Net-(D68-DIN)*%
X67000000Y-37500000D03*
X60500000Y-34000000D03*
%TO.N,Net-(D59-DIN)*%
X47500000Y-56500000D03*
X44981472Y-53981472D03*
%TO.N,Net-(D58-DIN)*%
X51500000Y-47500000D03*
X44000000Y-47000000D03*
%TO.N,Net-(D46-DIN)*%
X35500000Y-48000000D03*
X28500000Y-47000000D03*
%TO.N,Net-(D45-DIN)*%
X28491472Y-40991472D03*
X32000000Y-44500000D03*
%TO.N,Net-(D41-DIN)*%
X19000000Y-54000000D03*
X23500000Y-55500000D03*
%TO.N,Net-(D40-DIN)*%
X27000000Y-50500000D03*
X19500000Y-47500000D03*
%TO.N,Net-(D39-DIN)*%
X19000000Y-40000000D03*
X24000000Y-43500000D03*
%TO.N,Net-(D38-DIN)*%
X19000000Y-34000000D03*
X26000000Y-37500000D03*
%TO.N,Net-(D57-DIN)*%
X48000000Y-42500000D03*
X44500000Y-40500000D03*
%TO.N,Net-(D44-DIN)*%
X27000000Y-35000000D03*
X35000000Y-37500000D03*
%TO.N,Net-(D43-DIN)*%
X32000000Y-30500000D03*
X28050000Y-27500000D03*
%TO.N,Net-(D53-DIN)*%
X36921472Y-53921472D03*
X39000000Y-56000000D03*
%TO.N,Net-(D52-DIN)*%
X42000000Y-48000000D03*
X36990000Y-47232944D03*
%TO.N,Net-(D50-DIN)*%
X35500000Y-34500000D03*
X42500000Y-34500000D03*
%TO.N,Net-(D49-DIN)*%
X39000000Y-29500000D03*
X36500000Y-27000000D03*
%TO.N,Net-(D63-DIN)*%
X56000000Y-43500000D03*
X53300000Y-40500000D03*
%TO.N,Net-(D62-DIN)*%
X52000000Y-34500000D03*
X59500000Y-38000000D03*
%TO.N,Net-(D47-DIN)*%
X28361472Y-54361472D03*
X32000000Y-56000000D03*
%TO.N,Net-(D67-DIN)*%
X64000000Y-30000000D03*
X60530000Y-27500000D03*
%TO.N,Net-(D61-DIN)*%
X55500000Y-29500000D03*
X53000000Y-27000000D03*
%TO.N,Net-(D65-DIN)*%
X55500000Y-56000000D03*
X53000000Y-54000000D03*
%TO.N,Net-(D64-DIN)*%
X59000000Y-51000000D03*
X53000000Y-47000000D03*
%TO.N,Net-(U1-D2)*%
X76000000Y-31580000D03*
X87500000Y-28000000D03*
%TO.N,Net-(D37-DIN)*%
X24000000Y-31000000D03*
X19000000Y-27500000D03*
%TO.N,Net-(D71-DIN)*%
X61000000Y-54000000D03*
X63500000Y-55500000D03*
%TO.N,Net-(D70-DIN)*%
X68000000Y-51000000D03*
X60500000Y-47000000D03*
%TO.N,Net-(D56-DIN)*%
X50500000Y-37500000D03*
X44500000Y-33500000D03*
%TO.N,Net-(D55-DIN)*%
X44290000Y-28000000D03*
X47500000Y-29500000D03*
%TO.N,Net-(D51-DIN)*%
X36500000Y-40500000D03*
X39500000Y-42500000D03*
%TD*%
%TO.N,Net-(U1-D3)*%
D16*
X83500000Y-44000000D02*
X76000000Y-44000000D01*
X76000000Y-34120000D02*
X76000000Y-33500000D01*
X86000000Y-46500000D02*
X83500000Y-44000000D01*
X76000000Y-34120000D02*
X76000000Y-34500000D01*
%TO.N,GND*%
X36740000Y-22700000D02*
X38500000Y-24460000D01*
X21950000Y-50630000D02*
X21950000Y-54350000D01*
X35540000Y-23900000D02*
X29820000Y-23900000D01*
X20500000Y-22700000D02*
X21800000Y-24000000D01*
X62550000Y-50630000D02*
X62550000Y-54350000D01*
X21800000Y-24000000D02*
X27320000Y-24000000D01*
X62300000Y-23900000D02*
X61100000Y-22700000D01*
X76000000Y-50950000D02*
X82500000Y-50950000D01*
X62550000Y-24150000D02*
X62550000Y-27870000D01*
X46310000Y-44010000D02*
X46310000Y-47730000D01*
X85325000Y-28028000D02*
X87367516Y-25985484D01*
X30070000Y-54350000D02*
X28620000Y-55800000D01*
X44860000Y-22700000D02*
X43660000Y-23900000D01*
X54430000Y-47730000D02*
X52980000Y-49180000D01*
X63500000Y-40160000D02*
X61100000Y-42560000D01*
X46310000Y-41110000D02*
X44860000Y-42560000D01*
X46610000Y-27570000D02*
X44860000Y-29320000D01*
X92165000Y-29040000D02*
X91069032Y-29040000D01*
X21950000Y-37390000D02*
X21950000Y-41110000D01*
X30070000Y-27870000D02*
X28620000Y-29320000D01*
X36740000Y-42560000D02*
X38190000Y-44010000D01*
X38190000Y-44010000D02*
X38190000Y-47730000D01*
X52980000Y-22700000D02*
X54500000Y-24220000D01*
X20500000Y-49180000D02*
X21950000Y-50630000D01*
X85929032Y-23900000D02*
X62300000Y-23900000D01*
X51780000Y-23900000D02*
X46060000Y-23900000D01*
X52980000Y-35940000D02*
X54500000Y-37460000D01*
X21950000Y-30770000D02*
X21950000Y-34490000D01*
X54430000Y-44010000D02*
X54430000Y-47730000D01*
X28620000Y-49180000D02*
X30070000Y-50630000D01*
X54500000Y-24220000D02*
X54500000Y-27800000D01*
X52980000Y-49180000D02*
X54430000Y-50630000D01*
X38190000Y-47730000D02*
X36740000Y-49180000D01*
X82500000Y-50950000D02*
X85950000Y-50950000D01*
X61100000Y-49180000D02*
X62550000Y-50630000D01*
X28620000Y-35940000D02*
X30070000Y-37390000D01*
X22000000Y-27820000D02*
X20500000Y-29320000D01*
X52980000Y-42560000D02*
X54430000Y-44010000D01*
X46310000Y-34490000D02*
X44860000Y-35940000D01*
X22000000Y-44060000D02*
X22000000Y-47680000D01*
X36740000Y-35940000D02*
X38190000Y-37390000D01*
X54500000Y-27800000D02*
X52980000Y-29320000D01*
X46060000Y-23900000D02*
X44860000Y-22700000D01*
X44860000Y-42560000D02*
X46310000Y-44010000D01*
X30370000Y-34190000D02*
X28620000Y-35940000D01*
X85950000Y-50950000D02*
X86000000Y-51000000D01*
X38500000Y-27560000D02*
X36740000Y-29320000D01*
X54430000Y-54350000D02*
X52980000Y-55800000D01*
X38190000Y-30770000D02*
X38190000Y-34490000D01*
X54500000Y-41040000D02*
X52980000Y-42560000D01*
X21950000Y-54350000D02*
X20500000Y-55800000D01*
X61100000Y-42560000D02*
X62550000Y-44010000D01*
X20500000Y-42560000D02*
X22000000Y-44060000D01*
X61100000Y-29320000D02*
X62850000Y-31070000D01*
X88014516Y-25985484D02*
X85929032Y-23900000D01*
X62550000Y-54350000D02*
X61100000Y-55800000D01*
X46610000Y-24450000D02*
X46610000Y-27570000D01*
X36740000Y-49180000D02*
X38190000Y-50630000D01*
X44860000Y-29320000D02*
X46310000Y-30770000D01*
X54180000Y-23900000D02*
X59900000Y-23900000D01*
X54430000Y-30770000D02*
X54430000Y-34490000D01*
X30070000Y-41110000D02*
X28620000Y-42560000D01*
X62850000Y-34190000D02*
X61100000Y-35940000D01*
X21950000Y-34490000D02*
X20500000Y-35940000D01*
X62850000Y-31070000D02*
X62850000Y-34190000D01*
X46500000Y-54160000D02*
X44860000Y-55800000D01*
X28620000Y-42560000D02*
X30370000Y-44310000D01*
X38190000Y-41110000D02*
X36740000Y-42560000D01*
X46310000Y-37390000D02*
X46310000Y-41110000D01*
X61100000Y-35940000D02*
X63500000Y-38340000D01*
X62550000Y-47730000D02*
X61100000Y-49180000D01*
X27320000Y-24000000D02*
X28620000Y-22700000D01*
X46500000Y-50820000D02*
X46500000Y-54160000D01*
X28620000Y-22700000D02*
X30070000Y-24150000D01*
X21950000Y-41110000D02*
X20500000Y-42560000D01*
X20500000Y-29320000D02*
X21950000Y-30770000D01*
X36740000Y-22700000D02*
X35540000Y-23900000D01*
X30070000Y-37390000D02*
X30070000Y-41110000D01*
X46310000Y-30770000D02*
X46310000Y-34490000D01*
X59900000Y-23900000D02*
X61100000Y-22700000D01*
X30070000Y-50630000D02*
X30070000Y-54350000D01*
X87367516Y-25985484D02*
X88014516Y-25985484D01*
X90014516Y-48514516D02*
X90014516Y-27985484D01*
X44860000Y-49180000D02*
X46500000Y-50820000D01*
X22000000Y-24200000D02*
X22000000Y-27820000D01*
X46310000Y-47730000D02*
X44860000Y-49180000D01*
X38190000Y-54350000D02*
X36740000Y-55800000D01*
X62550000Y-44010000D02*
X62550000Y-47730000D01*
X38500000Y-24460000D02*
X38500000Y-27560000D01*
X54430000Y-50630000D02*
X54430000Y-54350000D01*
X28620000Y-29320000D02*
X30370000Y-31070000D01*
X29820000Y-23900000D02*
X28620000Y-22700000D01*
X52980000Y-22700000D02*
X54180000Y-23900000D01*
X63500000Y-38340000D02*
X63500000Y-40160000D01*
X44860000Y-35940000D02*
X46310000Y-37390000D01*
X37940000Y-23900000D02*
X36740000Y-22700000D01*
X92500000Y-51000000D02*
X86000000Y-51000000D01*
X52980000Y-22700000D02*
X51780000Y-23900000D01*
X54500000Y-37460000D02*
X54500000Y-41040000D01*
X90014516Y-27985484D02*
X88014516Y-25985484D01*
X22000000Y-47680000D02*
X20500000Y-49180000D01*
X44860000Y-22700000D02*
X46610000Y-24450000D01*
X52980000Y-29320000D02*
X54430000Y-30770000D01*
X30370000Y-31070000D02*
X30370000Y-34190000D01*
X38190000Y-34490000D02*
X36740000Y-35940000D01*
X20500000Y-35940000D02*
X21950000Y-37390000D01*
X62550000Y-27870000D02*
X61100000Y-29320000D01*
X91069032Y-29040000D02*
X90014516Y-27985484D01*
X30070000Y-24150000D02*
X30070000Y-27870000D01*
X92500000Y-51000000D02*
X90014516Y-48514516D01*
X38190000Y-50630000D02*
X38190000Y-54350000D01*
X36740000Y-29320000D02*
X38190000Y-30770000D01*
X61100000Y-22700000D02*
X62550000Y-24150000D01*
X30370000Y-44310000D02*
X30370000Y-47430000D01*
X43660000Y-23900000D02*
X37940000Y-23900000D01*
X38190000Y-37390000D02*
X38190000Y-41110000D01*
X20500000Y-22700000D02*
X22000000Y-24200000D01*
X54430000Y-34490000D02*
X52980000Y-35940000D01*
X30370000Y-47430000D02*
X28620000Y-49180000D01*
%TO.N,Net-(D69-DIN)*%
X64560000Y-44000000D02*
X66000000Y-42560000D01*
X61100000Y-40400000D02*
X61000000Y-40500000D01*
X64500000Y-44000000D02*
X64560000Y-44000000D01*
X61100000Y-39140000D02*
X61100000Y-40400000D01*
%TO.N,Net-(D37-VDD)*%
X32070000Y-37690000D02*
X33520000Y-39140000D01*
X19050000Y-60200000D02*
X19050000Y-57800000D01*
X40190000Y-33970000D02*
X41640000Y-32520000D01*
X51210000Y-31070000D02*
X49760000Y-32520000D01*
X95500000Y-33540000D02*
X95500000Y-62500000D01*
X26850000Y-57550000D02*
X26850000Y-53830000D01*
X56000000Y-34400000D02*
X57880000Y-32520000D01*
X43090000Y-27350000D02*
X41640000Y-25900000D01*
X57880000Y-52380000D02*
X59630000Y-54130000D01*
X51210000Y-57550000D02*
X49760000Y-59000000D01*
X41640000Y-32520000D02*
X43090000Y-31070000D01*
X25400000Y-39140000D02*
X23950000Y-37690000D01*
X56000000Y-37260000D02*
X56000000Y-34400000D01*
X64250000Y-47510000D02*
X66000000Y-45760000D01*
X48560000Y-57800000D02*
X49760000Y-59000000D01*
X26850000Y-44310000D02*
X26850000Y-40590000D01*
X33520000Y-32520000D02*
X32070000Y-33970000D01*
X47500000Y-34780000D02*
X49760000Y-32520000D01*
X23950000Y-37690000D02*
X23950000Y-33970000D01*
X64500000Y-57500000D02*
X66000000Y-59000000D01*
X59380000Y-57500000D02*
X64500000Y-57500000D01*
X40440000Y-57800000D02*
X41640000Y-59000000D01*
X26850000Y-53830000D02*
X25400000Y-52380000D01*
X49760000Y-45760000D02*
X48310000Y-47210000D01*
X35000000Y-44280000D02*
X33520000Y-45760000D01*
X66000000Y-39140000D02*
X67750000Y-40890000D01*
X66000000Y-52380000D02*
X67750000Y-54130000D01*
X67750000Y-40890000D02*
X67750000Y-44010000D01*
X59330000Y-27350000D02*
X59330000Y-31070000D01*
X67500000Y-31020000D02*
X67500000Y-27400000D01*
X59630000Y-57250000D02*
X57880000Y-59000000D01*
X59500000Y-44140000D02*
X57880000Y-45760000D01*
X67750000Y-44010000D02*
X66000000Y-45760000D01*
X35270000Y-30770000D02*
X33520000Y-32520000D01*
X50960000Y-57800000D02*
X56680000Y-57800000D01*
X57880000Y-59000000D02*
X59380000Y-57500000D01*
X66000000Y-39140000D02*
X64500000Y-37640000D01*
X56130000Y-47510000D02*
X57880000Y-45760000D01*
X19150000Y-57700000D02*
X24100000Y-57700000D01*
X43390000Y-57250000D02*
X43390000Y-54130000D01*
X67500000Y-27400000D02*
X66000000Y-25900000D01*
X51210000Y-53830000D02*
X51210000Y-57550000D01*
X59630000Y-54130000D02*
X59630000Y-57250000D01*
X56130000Y-50630000D02*
X56130000Y-47510000D01*
X23950000Y-50930000D02*
X23950000Y-47210000D01*
X33520000Y-39140000D02*
X35000000Y-40620000D01*
X49760000Y-59000000D02*
X50960000Y-57800000D01*
X93540000Y-31580000D02*
X95500000Y-33540000D01*
X43090000Y-44310000D02*
X43090000Y-40590000D01*
X51510000Y-44010000D02*
X49760000Y-45760000D01*
X26850000Y-31070000D02*
X26850000Y-27350000D01*
X51210000Y-27350000D02*
X51210000Y-31070000D01*
X41640000Y-59000000D02*
X42840000Y-57800000D01*
X48310000Y-47210000D02*
X48310000Y-50930000D01*
X47500000Y-36880000D02*
X47500000Y-34780000D01*
X56680000Y-57800000D02*
X57880000Y-59000000D01*
X32320000Y-57800000D02*
X33520000Y-59000000D01*
X41640000Y-59000000D02*
X43390000Y-57250000D01*
X67750000Y-54130000D02*
X67750000Y-57250000D01*
X41640000Y-45760000D02*
X43090000Y-44310000D01*
X33520000Y-59000000D02*
X34720000Y-57800000D01*
X35270000Y-27650000D02*
X35270000Y-30770000D01*
X35290000Y-57230000D02*
X33520000Y-59000000D01*
X66000000Y-52380000D02*
X64250000Y-50630000D01*
X31770000Y-50630000D02*
X33520000Y-52380000D01*
X57880000Y-39140000D02*
X59500000Y-40760000D01*
X23950000Y-47210000D02*
X25400000Y-45760000D01*
X25400000Y-45760000D02*
X26850000Y-44310000D01*
X57880000Y-52380000D02*
X56130000Y-50630000D01*
X32070000Y-33970000D02*
X32070000Y-37690000D01*
X59330000Y-31070000D02*
X57880000Y-32520000D01*
X51510000Y-40890000D02*
X51510000Y-44010000D01*
X64500000Y-37640000D02*
X64500000Y-34020000D01*
X92165000Y-31580000D02*
X93540000Y-31580000D01*
X40190000Y-47210000D02*
X41640000Y-45760000D01*
X40190000Y-37690000D02*
X40190000Y-33970000D01*
X66000000Y-32520000D02*
X67500000Y-31020000D01*
X48310000Y-50930000D02*
X49760000Y-52380000D01*
X34720000Y-57800000D02*
X40440000Y-57800000D01*
X49760000Y-39140000D02*
X51510000Y-40890000D01*
X31770000Y-47510000D02*
X31770000Y-50630000D01*
X26850000Y-27350000D02*
X25400000Y-25900000D01*
X25400000Y-59000000D02*
X26850000Y-57550000D01*
X43090000Y-31070000D02*
X43090000Y-27350000D01*
X33520000Y-45760000D02*
X31770000Y-47510000D01*
X26850000Y-40590000D02*
X25400000Y-39140000D01*
X64500000Y-34020000D02*
X66000000Y-32520000D01*
X35290000Y-54150000D02*
X35290000Y-57230000D01*
X49760000Y-52380000D02*
X51210000Y-53830000D01*
X43090000Y-40590000D02*
X41640000Y-39140000D01*
X41640000Y-52380000D02*
X40190000Y-50930000D01*
X25400000Y-59000000D02*
X26600000Y-57800000D01*
X67750000Y-57250000D02*
X66000000Y-59000000D01*
X19050000Y-57800000D02*
X19150000Y-57700000D01*
X59500000Y-40760000D02*
X59500000Y-44140000D01*
X57880000Y-25900000D02*
X59330000Y-27350000D01*
X49760000Y-39140000D02*
X47500000Y-36880000D01*
X95500000Y-62500000D02*
X21350000Y-62500000D01*
X49760000Y-25900000D02*
X51210000Y-27350000D01*
X24100000Y-57700000D02*
X25400000Y-59000000D01*
X23950000Y-33970000D02*
X25400000Y-32520000D01*
X35000000Y-40620000D02*
X35000000Y-44280000D01*
X64250000Y-50630000D02*
X64250000Y-47510000D01*
X21350000Y-62500000D02*
X19050000Y-60200000D01*
X40190000Y-50930000D02*
X40190000Y-47210000D01*
X43390000Y-54130000D02*
X41640000Y-52380000D01*
X33520000Y-52380000D02*
X35290000Y-54150000D01*
X33520000Y-25900000D02*
X35270000Y-27650000D01*
X25400000Y-52380000D02*
X23950000Y-50930000D01*
X57880000Y-39140000D02*
X56000000Y-37260000D01*
X25400000Y-32520000D02*
X26850000Y-31070000D01*
X26600000Y-57800000D02*
X32320000Y-57800000D01*
X42840000Y-57800000D02*
X48560000Y-57800000D01*
X41640000Y-39140000D02*
X40190000Y-37690000D01*
%TO.N,Net-(D68-DIN)*%
X61100000Y-32520000D02*
X61100000Y-33400000D01*
X67000000Y-37500000D02*
X67000000Y-36940000D01*
X67000000Y-36940000D02*
X66000000Y-35940000D01*
X61100000Y-33400000D02*
X60500000Y-34000000D01*
%TO.N,Net-(D59-DIN)*%
X44860000Y-52380000D02*
X44860000Y-53860000D01*
X47500000Y-56500000D02*
X49060000Y-56500000D01*
X49060000Y-56500000D02*
X49760000Y-55800000D01*
X44860000Y-53860000D02*
X44981472Y-53981472D01*
%TO.N,Net-(D58-DIN)*%
X51500000Y-47500000D02*
X51440000Y-47500000D01*
X44860000Y-45760000D02*
X44860000Y-46140000D01*
X51440000Y-47500000D02*
X49760000Y-49180000D01*
X44860000Y-46140000D02*
X44000000Y-47000000D01*
%TO.N,Net-(D46-DIN)*%
X28620000Y-45760000D02*
X28620000Y-46880000D01*
X35500000Y-48000000D02*
X34700000Y-48000000D01*
X28620000Y-46880000D02*
X28500000Y-47000000D01*
X34700000Y-48000000D02*
X33520000Y-49180000D01*
%TO.N,Net-(D45-DIN)*%
X28620000Y-40862944D02*
X28491472Y-40991472D01*
X28620000Y-39140000D02*
X28620000Y-40862944D01*
X32000000Y-44080000D02*
X33520000Y-42560000D01*
X32000000Y-44500000D02*
X32000000Y-44080000D01*
%TO.N,Net-(D41-DIN)*%
X23500000Y-55500000D02*
X25100000Y-55500000D01*
X25100000Y-55500000D02*
X25400000Y-55800000D01*
X20500000Y-52380000D02*
X20500000Y-52500000D01*
X20500000Y-52500000D02*
X19000000Y-54000000D01*
%TO.N,Net-(D40-DIN)*%
X20500000Y-45760000D02*
X20500000Y-46500000D01*
X27000000Y-50500000D02*
X26720000Y-50500000D01*
X20500000Y-46500000D02*
X19500000Y-47500000D01*
X26720000Y-50500000D02*
X25400000Y-49180000D01*
%TO.N,Net-(D39-DIN)*%
X24460000Y-43500000D02*
X25400000Y-42560000D01*
X20500000Y-39140000D02*
X19860000Y-39140000D01*
X24000000Y-43500000D02*
X24460000Y-43500000D01*
X19860000Y-39140000D02*
X19000000Y-40000000D01*
%TO.N,Net-(D38-DIN)*%
X26000000Y-37500000D02*
X26000000Y-36540000D01*
X20480000Y-32520000D02*
X19000000Y-34000000D01*
X20500000Y-32520000D02*
X20480000Y-32520000D01*
X26000000Y-36540000D02*
X25400000Y-35940000D01*
%TO.N,Net-(D57-DIN)*%
X48000000Y-42500000D02*
X49700000Y-42500000D01*
X49700000Y-42500000D02*
X49760000Y-42560000D01*
X44860000Y-40140000D02*
X44500000Y-40500000D01*
X44860000Y-39140000D02*
X44860000Y-40140000D01*
%TO.N,Net-(D44-DIN)*%
X28620000Y-33380000D02*
X27000000Y-35000000D01*
X35000000Y-37420000D02*
X33520000Y-35940000D01*
X35000000Y-37500000D02*
X35000000Y-37420000D01*
X28620000Y-32520000D02*
X28620000Y-33380000D01*
%TO.N,Net-(D43-DIN)*%
X28620000Y-26930000D02*
X28050000Y-27500000D01*
X32340000Y-30500000D02*
X33520000Y-29320000D01*
X32000000Y-30500000D02*
X32340000Y-30500000D01*
X28620000Y-25900000D02*
X28620000Y-26930000D01*
%TO.N,Net-(D53-DIN)*%
X39000000Y-56000000D02*
X41440000Y-56000000D01*
X36740000Y-53740000D02*
X36921472Y-53921472D01*
X41440000Y-56000000D02*
X41640000Y-55800000D01*
X36740000Y-52380000D02*
X36740000Y-53740000D01*
%TO.N,Net-(D52-DIN)*%
X36740000Y-45760000D02*
X36740000Y-46982944D01*
X36740000Y-46982944D02*
X36990000Y-47232944D01*
X42000000Y-48820000D02*
X41640000Y-49180000D01*
X42000000Y-48000000D02*
X42000000Y-48820000D01*
%TO.N,Net-(D50-DIN)*%
X42500000Y-35080000D02*
X41640000Y-35940000D01*
X42500000Y-34500000D02*
X42500000Y-35080000D01*
X36740000Y-33260000D02*
X35500000Y-34500000D01*
X36740000Y-32520000D02*
X36740000Y-33260000D01*
%TO.N,Net-(D49-DIN)*%
X39000000Y-29500000D02*
X41460000Y-29500000D01*
X36740000Y-25900000D02*
X36740000Y-26760000D01*
X41460000Y-29500000D02*
X41640000Y-29320000D01*
X36740000Y-26760000D02*
X36500000Y-27000000D01*
%TO.N,Net-(D63-DIN)*%
X52980000Y-39140000D02*
X52980000Y-40180000D01*
X52980000Y-40180000D02*
X53300000Y-40500000D01*
X56000000Y-43500000D02*
X56940000Y-43500000D01*
X56940000Y-43500000D02*
X57880000Y-42560000D01*
%TO.N,Net-(D62-DIN)*%
X59500000Y-38000000D02*
X59500000Y-37560000D01*
X52980000Y-33520000D02*
X52000000Y-34500000D01*
X52980000Y-32520000D02*
X52980000Y-33520000D01*
X59500000Y-37560000D02*
X57880000Y-35940000D01*
%TO.N,Net-(D47-DIN)*%
X32000000Y-56000000D02*
X33320000Y-56000000D01*
X28620000Y-54102944D02*
X28361472Y-54361472D01*
X28620000Y-52380000D02*
X28620000Y-54102944D01*
X33320000Y-56000000D02*
X33520000Y-55800000D01*
%TO.N,Net-(D67-DIN)*%
X61100000Y-25900000D02*
X61100000Y-26930000D01*
X61100000Y-26930000D02*
X60530000Y-27500000D01*
X64000000Y-30000000D02*
X65320000Y-30000000D01*
X65320000Y-30000000D02*
X66000000Y-29320000D01*
%TO.N,Net-(D61-DIN)*%
X55500000Y-29500000D02*
X57700000Y-29500000D01*
X52980000Y-26980000D02*
X53000000Y-27000000D01*
X57700000Y-29500000D02*
X57880000Y-29320000D01*
X52980000Y-25900000D02*
X52980000Y-26980000D01*
%TO.N,Net-(D65-DIN)*%
X52980000Y-53980000D02*
X53000000Y-54000000D01*
X55500000Y-56000000D02*
X57680000Y-56000000D01*
X57680000Y-56000000D02*
X57880000Y-55800000D01*
X52980000Y-52380000D02*
X52980000Y-53980000D01*
%TO.N,Net-(D64-DIN)*%
X59000000Y-51000000D02*
X59000000Y-50300000D01*
X52980000Y-45760000D02*
X52980000Y-46980000D01*
X59000000Y-50300000D02*
X57880000Y-49180000D01*
X52980000Y-46980000D02*
X53000000Y-47000000D01*
%TO.N,Net-(U1-D2)*%
X76000000Y-46450000D02*
X77750000Y-48200000D01*
X88500000Y-29000000D02*
X87500000Y-28000000D01*
X88500000Y-46404164D02*
X88500000Y-29000000D01*
X86704164Y-48200000D02*
X88500000Y-46404164D01*
X77750000Y-48200000D02*
X86704164Y-48200000D01*
%TO.N,Net-(D37-DIN)*%
X24000000Y-31000000D02*
X24000000Y-30720000D01*
X20500000Y-26000000D02*
X19000000Y-27500000D01*
X20500000Y-25900000D02*
X20500000Y-26000000D01*
X24000000Y-30720000D02*
X25400000Y-29320000D01*
%TO.N,Net-(D42-DIN)*%
X73150000Y-29040000D02*
X73150000Y-54500000D01*
X73150000Y-54500000D02*
X67450000Y-60200000D01*
X76000000Y-29040000D02*
X73150000Y-29040000D01*
X67450000Y-60200000D02*
X21700000Y-60200000D01*
X21700000Y-60200000D02*
X20500000Y-59000000D01*
%TO.N,Net-(D71-DIN)*%
X63500000Y-55500000D02*
X65700000Y-55500000D01*
X61100000Y-52380000D02*
X61100000Y-53900000D01*
X61100000Y-53900000D02*
X61000000Y-54000000D01*
X65700000Y-55500000D02*
X66000000Y-55800000D01*
%TO.N,Net-(D70-DIN)*%
X61100000Y-45760000D02*
X61100000Y-46400000D01*
X61100000Y-46400000D02*
X60500000Y-47000000D01*
X67820000Y-51000000D02*
X66000000Y-49180000D01*
X68000000Y-51000000D02*
X67820000Y-51000000D01*
%TO.N,Net-(D56-DIN)*%
X50500000Y-36680000D02*
X49760000Y-35940000D01*
X44860000Y-32520000D02*
X44860000Y-33140000D01*
X50500000Y-37500000D02*
X50500000Y-36680000D01*
X44860000Y-33140000D02*
X44500000Y-33500000D01*
%TO.N,Net-(D55-DIN)*%
X49580000Y-29500000D02*
X49760000Y-29320000D01*
X47500000Y-29500000D02*
X49580000Y-29500000D01*
X44860000Y-27430000D02*
X44290000Y-28000000D01*
X44860000Y-25900000D02*
X44860000Y-27430000D01*
%TO.N,Net-(D51-DIN)*%
X36740000Y-39140000D02*
X36740000Y-40260000D01*
X41580000Y-42500000D02*
X41640000Y-42560000D01*
X36740000Y-40260000D02*
X36500000Y-40500000D01*
X39500000Y-42500000D02*
X41580000Y-42500000D01*
%TD*%
M02*
